
<svg width="101" height="88" viewBox="0 0 101 88" fill="none" xmlns="http://www.w3.org/2000/svg">
<path d="M92.33 8.88998C90.41 11.47 87.54 17.6 84.22 23.3C82.16 26.84 79.85 29.32 78.08 30.9L78 30.95C79.62 33.61 83.59 40.91 83.85 49.01H84C96.98 34.34 92.88 11.59 92.34 8.88998H92.33ZM18.22 44.32C18.27 43.11 18.23 41.97 18.1 40.94C17.74 38 16.7 35.95 15.21 35.73C12.84 35.39 10.24 39.83 9.39998 45.65C8.59998 51.23 9.69998 56.05 11.89 56.74C11.98 56.77 12.08 56.79 12.17 56.81C12.5 56.85 12.83 56.81 13.16 56.68C15.22 55.89 17.26 51.91 17.98 46.89C18.11 46.01 18.19 45.15 18.22 44.33V44.32ZM57.26 46.49C57.26 40.81 53.86 36.22 49.67 36.22C47.3 36.22 45.17 37.69 43.79 40C43 41.3 42.45 42.86 42.21 44.59C42.12 45.21 42.08 45.84 42.08 46.5C42.08 52.18 45.48 56.77 49.68 56.77C50.07 56.77 50.44 56.73 50.81 56.66C52.04 56.41 53.17 55.76 54.13 54.82C56.03 52.96 57.27 49.92 57.27 46.5L57.26 46.49ZM26.62 57.32C27.07 57.41 28.97 55.5 28.13 55.08C27.58 54.81 26.07 54.98 25.07 55.14C24.4 55.24 24.19 56.1 24.74 56.5C25.4 56.98 26.36 57.27 26.62 57.32ZM68.86 78.39C68.86 78.39 68.97 78.35 68.99 78.33C69 78.31 69.04 78.33 69.07 78.31C69.45 77.83 69.93 77.38 70.55 77C72.35 75.89 76.89 73.22 80.26 68.1C81.65 65.99 82.83 63.48 83.54 60.48C83.71 59.75 83.92 58.27 84.07 56.99H84.11C88.3 52.21 101.82 35.47 100.8 19.73C99.57 1.09998 93.83 0.169983 93.83 0.169983C93.83 0.169983 91.99 0.669983 90.76 1.64998C89.74 2.45998 68.59 12.7 59.93 18.69V18.73C56.1 17.41 52.45 17.21 49.52 17.01C44.98 16.69 40.97 16.65 37.44 16.82C18.43 17.73 12.84 24.85 9.85999 30.12C7.51999 34.26 5.89999 42.36 5.33999 48.74C5.09999 51.43 5.05999 53.81 5.21999 55.46C5.34999 56.76 5.08998 58.09 4.28998 59.11C4.01998 59.46 3.66998 59.8 3.23998 60.1C2.24998 60.8 1.85998 62.53 1.95998 64.49C2.03998 66.13 2.45998 67.94 3.12998 69.46C3.27998 69.78 3.42999 70.09 3.59999 70.38C3.98999 71.07 4.69999 72.08 5.70999 73.27C5.84999 73.43 5.99998 73.6 6.15998 73.78C6.75998 74.45 7.44998 75.16 8.23998 75.89C8.32998 75.97 8.41998 76.05 8.50998 76.14C9.31998 76.88 10.23 77.64 11.23 78.4C11.5 78.6 11.76 78.8 12.05 79C12.36 79.22 12.68 79.45 13.01 79.67C13.54 80.03 14.1 80.39 14.68 80.74C14.97 80.92 15.26 81.09 15.56 81.26C15.83 81.42 16.1 81.57 16.38 81.72C16.64 81.87 16.9 82.01 17.17 82.14C17.46 82.3 17.76 82.44 18.06 82.59C18.37 82.75 18.69 82.89 19.01 83.04C19.35 83.2 19.69 83.35 20.05 83.5C20.33 83.62 20.61 83.74 20.9 83.85C21.12 83.95 21.35 84.03 21.58 84.12C22.69 84.55 23.84 84.94 25.06 85.29C25.42 85.39 25.79 85.5 26.17 85.59C26.39 85.65 26.59 85.7 26.82 85.75C27.52 85.94 28.24 86.09 28.99 86.24C29.02 86.24 29.05 86.25 29.08 86.25C29.15 86.26 29.22 86.28 29.29 86.29C29.33 86.35 29.36 86.42 29.42 86.5C29.42 86.52 29.44 86.54 29.46 86.57L68.88 78.35L68.86 78.39Z" fill="#FF9999"/>
<path d="M92.33 8.88998C92.87 11.59 96.97 34.34 83.99 49.01H83.84C83.59 40.91 79.62 33.61 77.99 30.95L78.07 30.9C79.84 29.32 82.16 26.84 84.21 23.3C87.53 17.6 90.4 11.47 92.32 8.88998H92.33Z" fill="white"/>
<path d="M55.83 48.32C55.83 50.78 55.19 53.02 54.13 54.79C53.17 55.74 52.04 56.39 50.81 56.64C52.49 55.11 53.6 52.51 53.6 49.56C53.6 46.17 52.14 43.25 50.02 41.88L53.14 40.48C54.79 42.36 55.83 45.18 55.83 48.32Z" fill="white"/>
<path d="M53.13 40.48C52.43 39.68 51.62 39.05 50.73 38.63C49.94 38.26 49.1 38.06 48.22 38.06C46.57 38.06 45.03 38.78 43.78 40C45.17 37.69 47.29 36.22 49.66 36.22C53.85 36.22 57.25 40.81 57.25 46.49C57.25 49.91 56.01 52.95 54.11 54.8C55.17 53.03 55.81 50.79 55.81 48.33C55.81 45.18 54.76 42.36 53.12 40.49L53.13 40.48Z" fill="white"/>
<path d="M53.13 40.48L50.01 41.88C50.01 41.88 50 41.88 49.99 41.87L50.74 38.63C51.62 39.05 52.43 39.68 53.14 40.48H53.13Z" fill="white"/>
<path d="M50.01 41.88C52.13 43.25 53.59 46.17 53.59 49.56C53.59 52.51 52.48 55.11 50.8 56.64C50.43 56.71 50.06 56.75 49.67 56.75C45.47 56.75 42.07 52.16 42.07 46.48C42.07 45.83 42.11 45.19 42.2 44.57C43.34 42.44 45.2 41.05 47.3 41.05C48.26 41.05 49.17 41.34 49.98 41.86C49.98 41.86 49.99 41.86 50 41.87L50.01 41.88Z" fill="white"/>
<path d="M50.74 38.62L49.99 41.86C49.18 41.34 48.27 41.05 47.31 41.05C45.21 41.05 43.36 42.44 42.21 44.57C42.45 42.85 43 41.28 43.79 39.98C45.04 38.76 46.57 38.04 48.23 38.04C49.11 38.04 49.95 38.24 50.74 38.61V38.62Z" fill="white"/>
<path d="M18.1 40.93C18.23 41.96 18.27 43.1 18.22 44.31C17.6 42.37 16.62 41.1 15.48 41.07C14.93 41.06 14.41 41.34 13.93 41.84L13.57 38.6C14.03 38.24 14.51 38.05 15.02 38.06C15.96 38.08 17.32 38.95 18.06 40.93H18.1Z" fill="white"/>
<path d="M13.93 41.85C14.41 41.35 14.93 41.06 15.48 41.08C16.62 41.11 17.6 42.37 18.22 44.32C18.19 45.14 18.11 46 17.98 46.88C17.26 51.9 15.23 55.88 13.16 56.67L13.14 56.63C12.21 55.08 11.63 52.47 11.69 49.51C11.76 46.13 12.67 43.21 13.92 41.88V41.87L13.93 41.85Z" fill="white"/>
<path d="M13.58 38.61C13.07 39.02 12.59 39.64 12.17 40.44C11.18 42.3 10.52 45.1 10.46 48.25C10.41 50.71 10.72 52.96 11.29 54.73L11.95 56.55L11.9 56.74C9.72 56.06 8.61 51.23 9.41 45.65C10.25 39.83 12.85 35.39 15.22 35.73C16.7 35.95 17.75 38 18.11 40.94H18.07C17.33 38.97 15.97 38.1 15.03 38.08C14.53 38.08 14.04 38.26 13.58 38.62V38.61Z" fill="white"/>
<path d="M13.58 38.61L13.94 41.85C13.94 41.85 13.94 41.85 13.94 41.86L12.18 40.43C12.6 39.64 13.08 39.01 13.59 38.6L13.58 38.61Z" fill="white"/>
<path d="M12.17 40.43L13.93 41.86C12.68 43.2 11.78 46.11 11.7 49.49C11.64 52.44 12.21 55.05 13.15 56.61L13.17 56.65C12.84 56.78 12.5 56.83 12.18 56.78C12.08 56.77 11.99 56.74 11.9 56.71L11.95 56.52L11.29 54.7C10.72 52.93 10.41 50.67 10.46 48.22C10.53 45.07 11.19 42.28 12.17 40.41V40.43Z" fill="white"/>
<path d="M37.44 16.83C18.43 17.74 12.84 24.86 9.85999 30.13C7.51999 34.27 5.89999 42.37 5.33999 48.75C4.72999 47.27 -1.11001 32.59 1.57999 20.82C4.40999 8.40998 0.49999 3.40998 4.47999 1.84998C8.41999 0.309978 28.94 1.89998 37.44 16.82V16.83Z" fill="#FF9999"/>
<path d="M24.81 56.36C24.81 56.36 24.46 56.03 24.54 55.75C24.62 55.47 25.3 54.94 25.48 54.94C25.66 54.94 27.85 54.91 27.85 54.91C27.85 54.91 28.39 55.24 28.37 55.35C28.35 55.46 28.09 55.97 28.04 56.06C27.99 56.15 27.38 56.88 27.38 56.88L26.73 57.23C26.73 57.23 26.07 57.44 25.85 57.18C25.63 56.92 24.82 56.36 24.82 56.36H24.81Z" fill="black"/>
<path d="M1.26999 23.35C1.26999 23.35 22.82 19.56 27.87 7.09998C27.87 7.09998 34.47 11.39 37.44 16.82C37.44 16.82 32.33 16.31 21.29 19.99C21.29 19.99 17.3 21.59 13.89 24.78C10.48 27.97 8.74999 32.27 8.74999 32.27C8.74999 32.27 6.66998 38.7 6.43998 40.96L5.32999 48.36C5.32999 48.36 3.64998 44.64 3.32998 43.26C3.00998 41.88 1.15998 33.11 1.10998 32.27C1.05998 31.43 0.789985 26.04 1.25999 23.35H1.26999Z" fill="#E58989"/>
<path d="M85.74 20.77C85.74 20.77 83.87 34.69 91.9 32.9C91.9 32.9 90.34 38.94 89.29 40.93C89.29 40.93 86.86 45.25 85.61 47.01C84.36 48.77 83.81 49.18 83.81 49.18C83.81 49.18 83.11 42.03 81.68 38.72C80.25 35.41 79.02 32.24 77.99 30.95L80.34 28.87C80.34 28.87 84.97 22.3 85.74 20.77Z" fill="#BFBFBF"/>
<path d="M93.83 0.179993C93.83 0.179993 95.26 5.93999 92.59 8.69999L92.34 9.01999L92.5 9.81999L92.9 12.93L93.22 15.76L93.34 21.12L93.13 25.52L92.49 30.24L91.48 34.76L90.54 37.94L88.61 42.31L86.81 45.27L85.32 47.43L83.86 49.09C83.86 49.09 84.68 54.32 84.03 56.77L84.46 56.54L87.41 52.99L90.72 48.43L94.17 43L97.12 37.13L99.17 31.73L100.36 26.37L100.82 23.07L100.59 17.26L100 12.62L98.91 7.77999L97.74 4.66999L96.63 2.57999L95.54 1.26999L94.48 0.479993L93.82 0.179993H93.83Z" fill="#E58989"/>
<path d="M9.07999 76.64C9.07999 76.64 47.21 94.04 79.72 68.79L78.14 70.92L76.49 72.71L74.88 74.11L70.78 76.83L69.01 78.33C69.01 78.33 68.53 78.55 68.03 78.75C64.64 80.1 51.3 85.27 43.82 86.53L41.7 86.92C41.7 86.92 39.17 87.13 37.28 87.1C35.39 87.07 30.77 86.51 30.77 86.51L24.97 85.31L19.38 83.3L14.93 80.85L11.28 78.56L9.07999 76.64Z" fill="#E58989"/>
</svg>
