
<svg width="109" height="142" viewBox="0 0 109 142" fill="none" xmlns="http://www.w3.org/2000/svg">
<g clip-path="url(#clip0_25_386)">
<path d="M99.33 8.88998C97.41 11.47 94.54 17.6 91.22 23.3C89.16 26.84 86.85 29.32 85.08 30.9L85 30.95C86.62 33.61 90.59 40.91 90.85 49.01H91C103.98 34.34 99.88 11.59 99.34 8.88998H99.33ZM25.22 44.32C25.27 43.11 25.23 41.97 25.1 40.94C24.74 38 23.7 35.95 22.21 35.73C19.84 35.39 17.24 39.83 16.4 45.65C15.6 51.23 16.7 56.05 18.89 56.74C18.98 56.77 19.08 56.79 19.17 56.81C19.5 56.85 19.83 56.81 20.16 56.68C22.22 55.89 24.26 51.91 24.98 46.89C25.11 46.01 25.19 45.15 25.22 44.33V44.32ZM64.26 46.49C64.26 40.81 60.86 36.22 56.67 36.22C54.3 36.22 52.17 37.69 50.79 40C50 41.3 49.45 42.86 49.21 44.59C49.12 45.21 49.08 45.84 49.08 46.5C49.08 52.18 52.48 56.77 56.68 56.77C57.07 56.77 57.44 56.73 57.81 56.66C59.04 56.41 60.17 55.76 61.13 54.82C63.03 52.96 64.27 49.92 64.27 46.5L64.26 46.49ZM33.62 57.32C34.07 57.41 35.97 55.5 35.13 55.08C34.58 54.81 33.07 54.98 32.07 55.14C31.4 55.24 31.19 56.1 31.74 56.5C32.4 56.98 33.36 57.27 33.62 57.32ZM75.86 78.39C75.86 78.39 75.97 78.35 75.99 78.33C76 78.31 76.04 78.33 76.07 78.31C76.45 77.83 76.93 77.38 77.55 77C79.35 75.89 83.89 73.22 87.26 68.1C88.65 65.99 89.83 63.48 90.54 60.48C90.71 59.75 90.92 58.27 91.07 56.99H91.11C95.3 52.21 108.82 35.47 107.8 19.73C106.57 1.09998 100.83 0.169983 100.83 0.169983C100.83 0.169983 98.99 0.669983 97.76 1.64998C96.74 2.45998 75.59 12.7 66.93 18.69V18.73C63.1 17.41 59.45 17.21 56.52 17.01C51.98 16.69 47.97 16.65 44.44 16.82C25.43 17.73 19.84 24.85 16.86 30.12C14.52 34.26 12.9 42.36 12.34 48.74C12.1 51.43 12.06 53.81 12.22 55.46C12.35 56.76 12.09 58.09 11.29 59.11C11.02 59.46 10.67 59.8 10.24 60.1C9.24998 60.8 8.85998 62.53 8.95998 64.49C9.03998 66.13 9.45998 67.94 10.13 69.46C10.28 69.78 10.43 70.09 10.6 70.38C10.99 71.07 11.7 72.08 12.71 73.27C12.85 73.43 13 73.6 13.16 73.78C13.76 74.45 14.45 75.16 15.24 75.89C15.33 75.97 15.42 76.05 15.51 76.14C16.32 76.88 17.23 77.64 18.23 78.4C18.5 78.6 18.76 78.8 19.05 79C19.36 79.22 19.68 79.45 20.01 79.67C20.54 80.03 21.1 80.39 21.68 80.74C21.97 80.92 22.26 81.09 22.56 81.26C22.83 81.42 23.1 81.57 23.38 81.72C23.64 81.87 23.9 82.01 24.17 82.14C24.46 82.3 24.76 82.44 25.06 82.59C25.37 82.75 25.69 82.89 26.01 83.04C26.35 83.2 26.69 83.35 27.05 83.5C27.33 83.62 27.61 83.74 27.9 83.85C28.12 83.95 28.35 84.03 28.58 84.12C29.69 84.55 30.84 84.94 32.06 85.29C32.42 85.39 32.79 85.5 33.17 85.59C33.39 85.65 33.59 85.7 33.82 85.75C34.52 85.94 35.24 86.09 35.99 86.24C36.02 86.24 36.05 86.25 36.08 86.25C36.15 86.26 36.22 86.28 36.29 86.29C36.33 86.35 36.36 86.42 36.42 86.5C36.42 86.52 36.44 86.54 36.46 86.57L75.88 78.35L75.86 78.39Z" fill="#FF9999"/>
<path d="M99.33 8.88998C99.87 11.59 103.97 34.34 90.99 49.01H90.84C90.59 40.91 86.62 33.61 84.99 30.95L85.07 30.9C86.84 29.32 89.16 26.84 91.21 23.3C94.53 17.6 97.4 11.47 99.32 8.88998H99.33Z" fill="white"/>
<path d="M62.83 48.32C62.83 50.78 62.19 53.02 61.13 54.79C60.17 55.74 59.04 56.39 57.81 56.64C59.49 55.11 60.6 52.51 60.6 49.56C60.6 46.17 59.14 43.25 57.02 41.88L60.14 40.48C61.79 42.36 62.83 45.18 62.83 48.32Z" fill="white"/>
<path d="M60.13 40.48C59.43 39.68 58.62 39.05 57.73 38.63C56.94 38.26 56.1 38.06 55.22 38.06C53.57 38.06 52.03 38.78 50.78 40C52.17 37.69 54.29 36.22 56.66 36.22C60.85 36.22 64.25 40.81 64.25 46.49C64.25 49.91 63.01 52.95 61.11 54.8C62.17 53.03 62.81 50.79 62.81 48.33C62.81 45.18 61.76 42.36 60.12 40.49L60.13 40.48Z" fill="white"/>
<path d="M60.13 40.48L57.01 41.88C57.01 41.88 57 41.88 56.99 41.87L57.74 38.63C58.62 39.05 59.43 39.68 60.14 40.48H60.13Z" fill="white"/>
<path d="M57.01 41.88C59.13 43.25 60.59 46.17 60.59 49.56C60.59 52.51 59.48 55.11 57.8 56.64C57.43 56.71 57.06 56.75 56.67 56.75C52.47 56.75 49.07 52.16 49.07 46.48C49.07 45.83 49.11 45.19 49.2 44.57C50.34 42.44 52.2 41.05 54.3 41.05C55.26 41.05 56.17 41.34 56.98 41.86C56.98 41.86 56.99 41.86 57 41.87L57.01 41.88Z" fill="white"/>
<path d="M57.74 38.62L56.99 41.86C56.18 41.34 55.27 41.05 54.31 41.05C52.21 41.05 50.36 42.44 49.21 44.57C49.45 42.85 50 41.28 50.79 39.98C52.04 38.76 53.57 38.04 55.23 38.04C56.11 38.04 56.95 38.24 57.74 38.61V38.62Z" fill="white"/>
<path d="M25.1 40.93C25.23 41.96 25.27 43.1 25.22 44.31C24.6 42.37 23.62 41.1 22.48 41.07C21.93 41.06 21.41 41.34 20.93 41.84L20.57 38.6C21.03 38.24 21.51 38.05 22.02 38.06C22.96 38.08 24.32 38.95 25.06 40.93H25.1Z" fill="white"/>
<path d="M20.93 41.85C21.41 41.35 21.93 41.06 22.48 41.08C23.62 41.11 24.6 42.37 25.22 44.32C25.19 45.14 25.11 46 24.98 46.88C24.26 51.9 22.23 55.88 20.16 56.67L20.14 56.63C19.21 55.08 18.63 52.47 18.69 49.51C18.76 46.13 19.67 43.21 20.92 41.88V41.87L20.93 41.85Z" fill="white"/>
<path d="M20.58 38.61C20.07 39.02 19.59 39.64 19.17 40.44C18.18 42.3 17.52 45.1 17.46 48.25C17.41 50.71 17.72 52.96 18.29 54.73L18.95 56.55L18.9 56.74C16.72 56.06 15.61 51.23 16.41 45.65C17.25 39.83 19.85 35.39 22.22 35.73C23.7 35.95 24.75 38 25.11 40.94H25.07C24.33 38.97 22.97 38.1 22.03 38.08C21.53 38.08 21.04 38.26 20.58 38.62V38.61Z" fill="white"/>
<path d="M20.58 38.61L20.94 41.85C20.94 41.85 20.94 41.85 20.94 41.86L19.18 40.43C19.6 39.64 20.08 39.01 20.59 38.6L20.58 38.61Z" fill="white"/>
<path d="M19.17 40.43L20.93 41.86C19.68 43.2 18.78 46.11 18.7 49.49C18.64 52.44 19.21 55.05 20.15 56.61L20.17 56.65C19.84 56.78 19.5 56.83 19.18 56.78C19.08 56.77 18.99 56.74 18.9 56.71L18.95 56.52L18.29 54.7C17.72 52.93 17.41 50.67 17.46 48.22C17.53 45.07 18.19 42.28 19.17 40.41V40.43Z" fill="white"/>
<path d="M44.44 16.83C25.43 17.74 19.84 24.86 16.86 30.13C14.52 34.27 12.9 42.37 12.34 48.75C11.73 47.27 5.88999 32.59 8.57999 20.82C11.41 8.40998 7.49999 3.40998 11.48 1.84998C15.42 0.309978 35.94 1.89998 44.44 16.82V16.83Z" fill="#FF9999"/>
<path d="M31.81 56.36C31.81 56.36 31.46 56.03 31.54 55.75C31.62 55.47 32.3 54.94 32.48 54.94C32.66 54.94 34.85 54.91 34.85 54.91C34.85 54.91 35.39 55.24 35.37 55.35C35.35 55.46 35.09 55.97 35.04 56.06C34.99 56.15 34.38 56.88 34.38 56.88L33.73 57.23C33.73 57.23 33.07 57.44 32.85 57.18C32.63 56.92 31.82 56.36 31.82 56.36H31.81Z" fill="black"/>
<path d="M8.26999 23.35C8.26999 23.35 29.82 19.56 34.87 7.09998C34.87 7.09998 41.47 11.39 44.44 16.82C44.44 16.82 39.33 16.31 28.29 19.99C28.29 19.99 24.3 21.59 20.89 24.78C17.48 27.97 15.75 32.27 15.75 32.27C15.75 32.27 13.67 38.7 13.44 40.96L12.33 48.36C12.33 48.36 10.65 44.64 10.33 43.26C10.01 41.88 8.15998 33.11 8.10998 32.27C8.05998 31.43 7.78999 26.04 8.25999 23.35H8.26999Z" fill="#E58989"/>
<path d="M92.74 20.77C92.74 20.77 90.87 34.69 98.9 32.9C98.9 32.9 97.34 38.94 96.29 40.93C96.29 40.93 93.86 45.25 92.61 47.01C91.36 48.77 90.81 49.18 90.81 49.18C90.81 49.18 90.11 42.03 88.68 38.72C87.25 35.41 86.02 32.24 84.99 30.95L87.34 28.87C87.34 28.87 91.97 22.3 92.74 20.77Z" fill="#BFBFBF"/>
<path d="M100.83 0.179993C100.83 0.179993 102.26 5.93999 99.59 8.69999L99.34 9.01999L99.5 9.81999L99.9 12.93L100.22 15.76L100.34 21.12L100.13 25.52L99.49 30.24L98.48 34.76L97.54 37.94L95.61 42.31L93.81 45.27L92.32 47.43L90.86 49.09C90.86 49.09 91.68 54.32 91.03 56.77L91.46 56.54L94.41 52.99L97.72 48.43L101.17 43L104.12 37.13L106.17 31.73L107.36 26.37L107.82 23.07L107.59 17.26L107 12.62L105.91 7.77999L104.74 4.66999L103.63 2.57999L102.54 1.26999L101.48 0.479993L100.82 0.179993H100.83Z" fill="#E58989"/>
<path d="M16.08 76.64C16.08 76.64 54.21 94.04 86.72 68.79L85.14 70.92L83.49 72.71L81.88 74.11L77.78 76.83L76.01 78.33C76.01 78.33 75.53 78.55 75.03 78.75C71.64 80.1 58.3 85.27 50.82 86.53L48.7 86.92C48.7 86.92 46.17 87.13 44.28 87.1C42.39 87.07 37.77 86.51 37.77 86.51L31.97 85.31L26.38 83.3L21.93 80.85L18.28 78.56L16.08 76.64Z" fill="#E58989"/>
<path d="M91.27 55.22C91.26 55.85 91.24 56.48 91.2 57.11H91.07L91.21 56.99C91.17 58.11 91.03 59.69 90.86 60.54C89.57 67.96 83.92 73.76 77.64 77.49C76.73 78.01 75.81 78.52 74.81 78.84C76.65 77.87 78.27 76.56 79.88 75.27C85.11 71.04 89.49 65.19 90.59 58.69L90.93 56.96L90.96 56.83H91.07L90.93 56.95C91.03 56.37 91.14 55.79 91.27 55.21V55.22Z" fill="#2D2D2D"/>
<path d="M70.63 20.45C66.45 18.21 61.71 17.59 57.04 17.38C52.36 17.13 47.65 16.97 42.98 17.36C29.74 18.16 17.76 22.48 14.57 36.74C13.11 42.76 12.21 49.12 12.59 55.3C12.82 56.9 12.39 58.78 11.11 59.97C9.74001 60.89 9.43001 62.16 9.42001 63.74C9.26001 70.15 14.43 74.86 19.17 78.44C26.71 83.89 36.05 86.91 45.39 86.83C48.73 86.9 51.62 86.35 54.68 85.7C51.72 86.78 48.55 87.24 45.4 87.33C35.92 87.61 26.29 84.88 18.57 79.28C13.54 75.57 8.23001 70.5 8.49001 63.73C8.49001 62.07 9.00001 60.24 10.52 59.33C11.6 58.37 12.01 56.86 11.84 55.37C11.64 52.17 11.98 49.03 12.38 45.91C14.27 31.78 18.56 21.53 33.55 17.88C41.24 16.01 49.25 16.08 57.09 16.73C61.67 17.08 66.95 17.84 70.63 20.46V20.45Z" fill="#2D2D2D"/>
<path d="M66.9 18.65C76.05 12.07 86.34 7.10999 96.43 2.13999C97.89 1.38999 99.19 0.35999 100.83 -0.0100098C103.44 0.97999 104.63 3.84999 105.6 6.25999C107.73 12.52 108.76 19.33 107.99 25.92C106.1 37.82 99.12 48.28 91.14 57.02C98.35 47.33 105.93 36.34 107.23 23.84C107.42 22.73 107.33 21.09 107.35 19.95C107.09 15.39 106.67 10.75 105.23 6.38999C104.46 4.09999 102.99 1.15999 100.87 0.32999C99.29 0.71999 98.02 1.75999 96.65 2.54999L92.41 4.87999C83.94 9.41999 75.1 13.99 66.9 18.65Z" fill="#2D2D2D"/>
<path d="M100.48 7.79C99.66 8.58 99.19 9.68 98.62 10.66C97.58 12.74 96.27 14.68 95.06 16.66C93.36 19.74 92.22 23.11 90.14 25.98C88.74 27.89 87.07 29.61 85.11 30.94L85.04 30.87C88.82 26.43 91.9 21.58 94.77 16.52C95.75 14.4 96.58 12.2 97.96 10.27C98.64 9.32 99.32 8.28 100.43 7.72L100.48 7.81V7.79Z" fill="#2D2D2D"/>
<path d="M90.94 49.01C98.67 39.12 100.58 26.14 99.79 13.92C99.7 12.15 99.51 10.39 99.28 8.63C102.47 22.29 100.97 38.48 90.94 49.02V49.01Z" fill="#2D2D2D"/>
<path d="M12.35 48.88C8.74 40.61 6.37 31.24 8.05 22.21C9.43 16.92 9.83 11.57 9.29 6.11999C9.26 5.00999 9.19 3.65999 9.88 2.63999C11.51 0.529991 14.93 1.02999 17.25 0.989991C27.97 1.63999 39.51 7.04999 44.45 16.78C44.47 16.78 44.51 16.82 44.51 16.84H44.41C44.41 16.84 44.44 16.89 44.45 16.88L44.41 16.85C42.46 13.81 39.94 11.19 37.07 9.08999C34.2 6.96999 30.97 5.37999 27.62 4.18999C22.66 2.58999 17.14 1.24999 11.96 2.14999C10.05 2.53999 9.82 4.44999 9.85 6.11999C9.93 9.71999 9.97 13.38 9.47 16.96C8.93 20.53 8.14 24.03 8.3 27.66C8.48 34.81 10.1 41.9 12.4 48.73C12.4 48.72 12.45 48.86 12.45 48.85L12.36 48.88H12.35Z" fill="#2D2D2D"/>
<path d="M90.53 60.49C87.7 60.51 84.65 61.08 81.94 60.47C84.75 60.03 87.8 60.3 90.53 60.49Z" fill="#2D2D2D"/>
<path d="M101.73 74.46C96.21 72.03 88.02 69.09 82.91 66.18C88.49 68.15 96.4 71.94 101.73 74.46Z" fill="#2D2D2D"/>
<path d="M3.73999 76.1C5.87999 73.01 8.55999 69.72 11.99 68.17C9.08999 70.64 6.05999 73.15 3.73999 76.1Z" fill="#2D2D2D"/>
<path d="M0 65.25C3.73 64.77 8.06 63.56 11.66 64.73C7.85 64.61 3.71 65 0 65.25Z" fill="#2D2D2D"/>
<path d="M84.31 29.87C88.76 35.5 91.58 42.92 90.86 50.16C90.16 42.96 87.57 36.26 84.31 29.87Z" fill="#2D2D2D"/>
<path d="M61.1 54.84C65.27 49.96 64.89 39.75 58.67 36.75C53.83 34.87 50.1 40.17 49.7 44.47C48.6 51.35 53.97 60.07 61.16 54.83C57.25 59.29 51.27 56.46 49.48 51.54C48.57 49.25 48.37 46.73 48.77 44.33C50.13 35.47 59.77 32.61 63.76 41.5C65.53 45.73 64.79 52.1 61.1 54.84Z" fill="#2D2D2D"/>
<path d="M20.15 56.62C24.08 54.85 25.45 43.69 24.75 39.79C24.44 38.14 23.45 35.31 21.32 36.12C20.48 36.51 19.86 37.33 19.35 38.15C17.82 40.73 17.17 43.75 16.81 46.71C16.56 49.21 16 57.61 20.15 56.62ZM20.19 56.71C16 57.92 15.33 49.29 15.76 46.59C16.11 43.48 16.93 40.34 18.69 37.71C21.46 33.71 24.33 35.54 25.07 39.72C26.29 45.2 25.36 53.51 20.19 56.71Z" fill="#2D2D2D"/>
<path d="M31.74 56.48C31.19 56.09 31.4 55.23 32.07 55.12C33.07 54.96 34.59 54.79 35.13 55.06C35.98 55.48 34.07 57.39 33.62 57.3C33.35 57.25 32.4 56.96 31.74 56.48Z" stroke="#2D2D2D" stroke-width="0.5" stroke-miterlimit="10"/>
<path d="M30.3 66.23C31.27 66.43 32.13 66.67 32.98 66.77C33.82 66.95 34.84 66.98 35.42 66.2C35.53 66.07 35.48 66.12 35.64 66.17C37.69 66.77 39.95 67.39 41.96 66.34L42.03 66.41C41.45 67.55 39.99 68.07 38.76 67.92C37.52 67.8 36.42 67.23 35.45 66.49L35.67 66.46C34.5 67.45 32.84 68.08 31.41 67.23C30.96 67 30.55 66.71 30.23 66.31L30.28 66.23H30.3Z" fill="#2D2D2D"/>
<path d="M47.36 17.53C33.43 18.54 20.33 21.03 15.62 36C14.22 40.19 13.54 44.62 12.93 49C13.13 44.55 13.62 40.09 14.89 35.76C19.21 20.41 33.2 17.29 47.36 17.53Z" fill="#FFEEEE"/>
<path d="M10.11 5.8C9.33001 0.330003 16.45 1.97 19.71 2.25C23.66 2.76 27.61 3.85 31.01 5.94C25.45 3.93 19.58 3 13.75 2.64C11.43 2.48 10.25 3.41 10.1 5.8H10.11Z" fill="#FFEEEE"/>
<path d="M24.67 50.47C24.11 53.06 22.58 56.98 19.44 56.95C22.37 56.22 23.37 52.88 24.67 50.47Z" fill="#FFEEEE"/>
<path d="M62.92 52.9C61.98 55.35 59.41 57.36 56.71 57.02C59.31 56.62 61.36 54.96 62.92 52.9Z" fill="#FFEEEE"/>
<path d="M31.73 55.95C32.02 55.03 33.51 55.07 34.24 55.41C33.81 55.59 33.38 55.64 32.94 55.71C32.57 55.77 32.04 55.74 31.72 55.96L31.73 55.95Z" fill="#333333"/>
<path d="M73.17 15.53C80.01 11.12 87.18 7.29998 94.67 4.09998C87.83 8.51998 80.66 12.33 73.17 15.53Z" fill="#FFEEEE"/>
<path d="M12.85 55.81C13.66 57.56 12.72 59.93 10.8 60.43C12.26 59.3 12.89 57.66 12.85 55.81Z" fill="#FFEEEE"/>
<path d="M32.55 137.45C29.92 140.05 26.72 141.08 23.19 141.08C14.04 141.08 10.47 135.32 10.44 128.99C10.41 123 14.44 116.64 23.19 116.64C26.55 116.64 29.58 117.8 32.21 120.37L28.15 124.36C26.49 122.76 24.75 122.33 23.19 122.33C18.7 122.33 16.93 125.99 16.96 129.02C17 132.05 18.59 135.48 23.19 135.48C24.75 135.48 27.02 134.81 28.68 133.12L32.54 137.45H32.55Z" fill="#FF9999"/>
<path d="M32.58 137.45C27.56 142.84 16.56 142.61 12.33 136.36C8.08 129.94 10.65 119.83 18.25 117.36C23.09 115.6 28.9 116.58 32.52 120.37L32.37 120.52L28.33 124.54L28.17 124.7L28 124.54C25.32 121.76 19.93 121.87 18.08 125.52C16.27 128.82 17.35 134.13 21.4 135.08C23.93 135.77 26.76 134.88 28.62 133.04C28.73 132.93 28.69 132.93 28.79 133.04L32.59 137.45H32.58ZM32.53 137.45L28.6 133.2H28.77C24.55 137.56 16.82 135.99 16.73 129.26C16.32 122.66 23.75 119.71 28.32 124.19H27.99L32.07 120.22V120.52C28.59 116.85 22.99 115.9 18.3 117.54C10.8 119.86 8.47 129.97 12.67 136.12C16.97 142.23 27.29 142.45 32.52 137.45H32.53Z" fill="#2D2D2D"/>
<path d="M51.34 136.65H40.92L39.39 140.48H32.4L42.85 117.18H49.51L59.93 140.48H52.87L51.34 136.65ZM46.15 123.7L43.15 131.12H49.11L46.15 123.7Z" fill="#FF9999"/>
<path d="M51.33 136.67C48.74 136.73 43.52 136.8 40.92 136.81L41.07 136.71L39.57 140.55L39.52 140.67H39.38C36.94 140.7 34.5 140.7 32.06 140.68L32.2 140.38C35.33 133.68 39.81 123.8 42.7 117.1L42.74 117.01H42.84L49.5 116.95H49.64L49.7 117.08C53.22 124.83 56.71 132.59 60.08 140.4L60.19 140.66H59.92L52.86 140.58C52.78 140.58 52.79 140.59 52.76 140.52L51.31 136.67H51.33ZM51.36 136.63L52.97 140.44L52.87 140.38L59.93 140.3L59.77 140.55C56.19 132.83 52.74 125.05 49.31 117.26L49.51 117.39L42.85 117.33L42.99 117.24C39.9 123.82 35.52 133.82 32.59 140.57L32.4 140.27C34.73 140.25 37.06 140.26 39.39 140.28L39.21 140.4L40.77 136.58L40.81 136.48C43.47 136.49 48.7 136.56 51.35 136.62L51.36 136.63Z" fill="#2D2D2D"/>
<path d="M46.15 123.73C45.39 125.94 44.27 129.1 43.24 131.16L43.16 131.04C45.15 131.1 47.13 130.9 49.12 130.89L48.9 131.22C47.99 129.14 46.92 125.91 46.16 123.73H46.15ZM46.15 123.68C47.2 125.99 48.62 129 49.46 131.37C47.36 131.37 45.26 131.15 43.16 131.22C43 131.22 43.01 131.27 43.08 131.09C43.9 128.58 45.04 126.06 46.16 123.67L46.15 123.68Z" fill="#2D2D2D"/>
<path d="M64.61 122.6H57.82V117.17H78V122.6H71.17V140.48H64.61V122.6Z" fill="#FF9999"/>
<path d="M64.59 122.62C62.24 122.66 59.95 122.74 57.68 122.74V122.6L57.64 117.17V116.99C63.55 116.88 72 117.02 78 117.07H78.1C78.07 118.91 78.08 120.75 78.1 122.59V122.69H78L71.17 122.74L71.32 122.59C71.39 128.64 71.43 134.68 71.43 140.73H71.17H64.61L64.36 140.72V140.47L64.6 122.61L64.59 122.62ZM64.63 122.58C64.74 128.44 64.8 134.47 64.86 140.48L64.61 140.23H71.17L70.91 140.48C70.91 134.47 70.96 128.46 71.03 122.45H71.18L78.01 122.5L77.91 122.6C77.93 120.79 77.94 118.98 77.91 117.17L78.01 117.27C72.06 117.35 63.7 117.44 57.83 117.36L58.01 117.18L57.97 122.61L57.83 122.47C60.13 122.47 62.41 122.56 64.64 122.59L64.63 122.58Z" fill="#2D2D2D"/>
<path d="M95.22 123.63C93.62 122.43 91.79 122.03 89.76 122.03C88.16 122.03 86.6 122.53 86.6 123.76C86.6 125.36 88.17 125.59 90.46 125.82C95.09 126.32 99.92 128.18 99.92 133.54C99.92 138.9 94.93 141.1 89.7 141.13C85.51 141.16 82.51 140.43 79.28 137.03L82.91 132.87C85.21 135.1 87.77 135.5 89.74 135.5C91.9 135.5 93.4 134.73 93.4 133.44C93.4 132.27 92.07 131.54 89.5 131.31C84.41 130.84 80.01 129.55 80.01 123.75C80.01 118.82 84.84 116.69 89.76 116.69C93.26 116.69 95.99 117.49 98.48 119.45L95.22 123.61V123.63Z" fill="#FF9999"/>
<path d="M95.22 123.66C93.36 122.3 91.01 121.99 88.81 122.22C88.27 122.3 87.72 122.45 87.29 122.75C86.84 123.05 86.65 123.56 86.76 124.09C86.96 125.24 88.38 125.39 89.35 125.53C95.29 125.81 101.74 128.7 99.74 135.78C97.62 141.54 89.98 141.9 84.86 140.69C82.65 140.11 80.72 138.75 79.17 137.12L79.1 137.05L79.17 136.97L82.78 132.79C82.91 132.64 82.85 132.67 82.98 132.79C84.56 134.34 86.7 135.21 88.9 135.31C90.36 135.35 92.44 135.36 93.09 133.85C93.56 131.16 88.11 131.73 86.39 131.15C84.18 130.72 81.83 129.75 80.67 127.69C75.54 116.47 92.08 113.66 98.61 119.47L98.55 119.55L95.21 123.67L95.22 123.66ZM95.22 123.61L98.41 119.41L98.43 119.55C96.68 118.19 94.58 117.32 92.39 117.04C85.65 115.98 77.48 119.48 81.14 127.41C82.86 130.3 86.69 130.78 89.8 131.11C90.91 131.26 92.1 131.41 93.06 132.22C94.16 133.15 93.49 134.84 92.28 135.26C89.05 136.42 85.2 135.37 82.81 132.99H83.01L79.36 137.13V136.98C80.88 138.62 82.76 139.97 84.93 140.56C90.8 142.11 100.82 140.37 99.63 132.43C99.35 130.22 97.77 128.42 95.79 127.46C93.3 126.07 90.34 126.25 87.65 125.47C86.42 125.11 85.99 123.27 87.15 122.55C89.59 121.27 93.12 122.03 95.22 123.62V123.61Z" fill="#2D2D2D"/>
<path d="M27.8 101.02L22.49 107.32H21.45L16.25 101.05V113.4H10.43V92.61H16.58L22.04 99.65L27.5 92.61H33.62V113.4H27.8V101.02Z" fill="#FF9999"/>
<path d="M27.79 101.04C25.98 103.19 24.29 105.36 22.54 107.44C22.47 107.44 21.44 107.44 21.38 107.44C21.31 107.39 16.17 101.21 16.11 101.15L16.43 101.03C16.47 104.75 16.48 109.91 16.45 113.58H16.25L10.43 113.55H10.26V113.38C10.32 107.2 10.37 98.58 10.32 92.49H10.43L16.58 92.46C16.65 92.46 16.65 92.46 16.69 92.51L22.2 99.51H21.89L27.32 92.45L27.39 92.36H27.51L33.63 92.34H33.89V92.6C33.89 99.6 33.89 106.59 33.83 113.59H33.63L27.81 113.55C27.61 113.55 27.65 113.59 27.65 113.39L27.8 101.03L27.79 101.04ZM27.81 100.99L27.96 113.4L27.8 113.24L33.62 113.2L33.42 113.4C33.35 106.47 33.36 99.54 33.36 92.61L33.62 92.87L27.5 92.85L27.69 92.76L22.19 99.77L22.03 99.97L21.88 99.77L16.46 92.69L16.57 92.74L10.42 92.71L10.53 92.6C10.51 96.06 10.49 99.53 10.53 102.99L10.59 113.38L10.42 113.21L16.24 113.18L16.04 113.38C15.99 109.81 16.04 104.65 16.06 101.03V100.53L16.38 100.92L21.54 107.21L21.44 107.16H22.48C23.82 105.36 26.2 102.94 27.8 100.98L27.81 100.99Z" fill="#2D2D2D"/>
<path d="M52.2 109.99H42.91L41.54 113.4H35.3L44.62 92.61H50.56L59.85 113.4H53.56L52.19 109.99H52.2ZM47.57 98.44L44.9 105.06H50.21L47.57 98.44Z" fill="#FF9999"/>
<path d="M52.19 110.01C49.05 110.08 45.97 110.14 42.91 110.18L43.08 110.06L41.73 113.48L41.68 113.61C39.44 113.63 37.21 113.63 34.97 113.61C36.74 109.82 40.59 101.5 42.2 97.77L44.49 92.55L44.53 92.46H44.63L50.57 92.4H50.71L50.77 92.53C53.92 99.44 57.03 106.36 60.03 113.33L60.14 113.59H59.87L53.58 113.51C53.5 113.51 53.51 113.51 53.48 113.45L52.2 110.02L52.19 110.01ZM52.22 109.97L53.67 113.37L53.57 113.31L59.86 113.23L59.7 113.48C56.5 106.6 53.42 99.66 50.37 92.71L50.57 92.84L44.63 92.78L44.77 92.69C42.01 98.56 38.1 107.47 35.5 113.5L35.31 113.2C37.39 113.18 39.47 113.19 41.55 113.2L41.36 113.33L42.74 109.92C42.8 109.77 42.77 109.8 42.91 109.8C46.04 109.83 49.16 109.9 52.22 109.97Z" fill="#2D2D2D"/>
<path d="M47.57 98.46C46.9 100.44 45.92 103.26 44.98 105.09L44.9 104.96C46.67 105.02 48.44 104.82 50.21 104.81L49.99 105.14C49.17 103.29 48.24 100.39 47.57 98.45V98.46ZM47.57 98.41C48.53 100.48 49.82 103.16 50.56 105.3C48.67 105.3 46.79 105.08 44.9 105.15C44.74 105.15 44.75 105.2 44.82 105.02C45.54 102.78 46.56 100.53 47.58 98.41H47.57Z" fill="#2D2D2D"/>
<path d="M75.82 98.76C74.3 97.33 72.46 96.95 71.07 96.95C67.68 96.95 65.49 98.97 65.49 103.04C65.49 105.71 66.89 109.01 71.07 109.01C72.17 109.01 73.89 108.8 75.08 107.94V105.27H69.82V100.67H79.98V109.91C78.67 112.55 75.05 113.98 71.04 113.98C62.82 113.98 59.7 108.49 59.7 103.05C59.7 97.61 63.26 92.03 71.07 92.03C73.95 92.03 76.5 92.62 79.24 95.39L75.83 98.78L75.82 98.76Z" fill="#FF9999"/>
<path d="M75.82 98.79C73.32 96.51 68.61 96.25 66.61 99.22C64.94 102.01 65.34 106.63 68.46 108.23C70.46 109.13 73.12 108.95 74.96 107.78L74.88 107.94L74.9 105.27L75.08 105.45L69.82 105.42H69.67V105.27L69.7 100.67C69.71 100.54 69.65 100.54 69.82 100.55C73.23 100.56 76.65 100.62 80.06 100.58V100.67L80.11 109.9C77.81 114.18 71.88 114.68 67.57 113.81C64.1 113.13 61.11 110.51 60.05 107.1C58.17 101.57 60.59 94.47 66.44 92.59C70.83 91.06 76.22 91.74 79.36 95.37L79.29 95.43L75.81 98.77L75.82 98.79ZM75.82 98.74L79.17 95.31V95.44C76.01 92.02 70.81 91.44 66.59 92.98C59.9 95.27 58.02 104.51 62.1 109.89C65.79 114.98 76.59 115.2 79.84 109.89L79.89 100.65C77.08 100.88 73.04 100.67 69.82 100.77L69.94 100.65L69.97 105.25L69.82 105.1L75.08 105.07H75.26V105.26L75.28 107.93V108.03C73.25 109.4 70.49 109.61 68.27 108.59C64.96 106.84 64.55 102.01 66.37 99.05C68.43 95.96 73.41 96.33 75.82 98.73V98.74Z" fill="#2D2D2D"/>
<path d="M99.94 113.4H83.31V92.61H99.52V97.54H89.1V100.51H98.93V105.29H89.1V108.44H99.94V113.4Z" fill="#FF9999"/>
<path d="M99.96 113.42C95.81 113.48 87.46 113.57 83.31 113.59H83.13V113.4C83.04 107.49 83.15 98.6 83.18 92.61V92.47H83.31L91.42 92.53L99.53 92.49H99.64V92.61L99.67 97.54C99.67 97.72 99.7 97.68 99.53 97.68L89.11 97.76L89.33 97.54L89.34 100.51L89.11 100.28L98.94 100.25H99.2V100.52V105.3V105.56H98.94L89.11 105.52L89.33 105.3L89.31 108.45L89.12 108.26L99.96 108.35H100.06V108.45L99.98 113.43L99.96 113.42ZM99.92 113.38L99.84 108.44L99.94 108.54L89.1 108.63H88.91V108.44L88.88 105.29V105.07H89.1L98.93 105.03L98.67 105.29V100.51L98.93 100.77L89.1 100.74H88.86V100.51L88.87 97.54V97.31H89.09L99.51 97.39L99.37 97.53L99.4 92.6L99.52 92.72L91.41 92.68L83.3 92.74L83.43 92.61C83.48 98.63 83.54 107.46 83.48 113.4L83.29 113.21C87.43 113.23 95.76 113.32 99.9 113.38H99.92Z" fill="#2D2D2D"/>
<path d="M16.27 93C14.46 93.08 12.64 93.11 10.83 93.12L10.95 93C10.95 95.33 10.95 97.67 10.83 100C10.72 97.67 10.71 95.33 10.71 93V92.88C12.56 92.88 14.42 92.91 16.27 93Z" fill="#FFEEEE"/>
<path d="M29.91 93.19C29.3 93.19 28.17 93.34 27.83 93.24C26.21 95.45 24.55 97.62 22.78 99.71C24.33 97.45 25.99 95.27 27.7 93.13C28.38 93.04 29.2 93.18 29.91 93.18V93.19Z" fill="#FFEEEE"/>
<path d="M47.88 93.07C46.95 93.12 46.02 93.15 45.08 93.17L45.17 93.11C44.05 95.66 42.89 98.19 41.61 100.67C42.65 98.08 43.8 95.55 45 93.03L45.03 92.97C45.98 92.99 46.93 93.02 47.89 93.07H47.88Z" fill="#FFEEEE"/>
<path d="M70.25 102.66C70.22 102.12 70.18 101.59 70.17 101.05H70.25C72.54 100.98 74.82 100.98 77.11 101.13C75.97 101.21 74.82 101.24 73.68 101.25C72.54 101.26 71.39 101.25 70.25 101.21L70.33 101.13C70.32 101.64 70.28 102.15 70.25 102.66Z" fill="#FFEEEE"/>
<path d="M69.76 92.61C64.54 93.49 60.52 97.62 60.52 103.02C60.55 102.39 60.52 101.74 60.61 101.11C61.08 96.48 65.28 93.07 69.75 92.61H69.76Z" fill="#FFEEEE"/>
<path d="M20.76 117.55C15.54 118.43 11.52 122.56 11.53 127.96C11.56 127.33 11.53 126.68 11.62 126.05C12.08 121.42 16.29 118.01 20.76 117.55Z" fill="#FFEEEE"/>
<path d="M91.42 92.87C88.86 92.98 86.29 92.99 83.73 92.99L83.85 92.87C83.84 95.1 83.82 97.34 83.73 99.57C83.64 97.34 83.62 95.1 83.61 92.87C83.61 92.72 83.58 92.75 83.73 92.75C86.29 92.75 88.86 92.76 91.42 92.87Z" fill="#FFEEEE"/>
<path d="M98.29 100.98C95.84 101.15 93.38 101.15 90.93 100.98C93.38 100.81 95.84 100.81 98.29 100.98Z" fill="#FFEEEE"/>
<path d="M47.53 117.51C46.08 117.57 44.63 117.6 43.18 117.62L43.28 117.56C41.96 120.61 40.59 123.64 39.13 126.63C40.37 123.54 41.71 120.5 43.09 117.47L43.12 117.41C44.59 117.43 46.07 117.46 47.54 117.52L47.53 117.51Z" fill="#FFEEEE"/>
<path d="M47.89 105.66C48.83 105.49 49.77 105.49 50.71 105.66C49.77 105.83 48.83 105.83 47.89 105.66Z" fill="#FFEEEE"/>
<path d="M58.23 119.59L58.16 117.66C58.16 117.58 58.15 117.6 58.23 117.59C62.23 117.51 66.22 117.5 70.22 117.66C66.22 117.81 62.23 117.81 58.23 117.72L58.29 117.66L58.22 119.59H58.23Z" fill="#FFEEEE"/>
<path d="M90.1 117.37C85.52 117.32 80.7 119.47 80.64 124.66C80.3 119.36 85.48 116.94 90.1 117.37Z" fill="#FFEEEE"/>
<path d="M94.88 127.33C96.38 127.83 97.81 128.95 98.33 130.49C97.5 129.12 96.24 128.16 94.88 127.33Z" fill="#FFEEEE"/>
</g>
<defs>
<clipPath id="clip0_25_386">
<rect width="108.24" height="141.4" fill="white"/>
</clipPath>
</defs>
</svg>
