<svg width="1920" height="240" viewBox="0 0 1920 240" fill="none" xmlns="http://www.w3.org/2000/svg">
<path d="M1919.78 0H0.570007V96.93C0.570007 96.93 41.18 98.01 61.22 107.76C81.26 117.51 115.37 139.71 151.65 139.17C187.93 138.63 215.01 131.59 240.46 117.51C265.91 103.43 285.95 96.39 331.43 98.02C376.91 99.65 401.83 125.64 445.69 137.01C489.55 148.38 538.29 133.22 563.2 118.06C588.11 102.9 633.06 92.07 671.5 99.65C709.94 107.23 717.53 125.64 764.1 134.85C810.67 144.06 843.16 135.93 859.95 126.73C876.74 117.53 903.27 97.49 959.59 98.03C1015.91 98.57 989.37 101.28 1052.19 124.02C1115.01 146.76 1143.71 137.56 1176.2 129.44C1208.69 121.32 1236.31 89.37 1296.96 97.49C1357.61 105.61 1357.61 130.52 1408.51 138.1C1459.41 145.68 1482.16 134.31 1503.28 125.65C1524.4 116.99 1546.06 98.03 1597.5 97.49C1648.94 96.95 1667.36 114.28 1700.93 127.81C1734.5 141.34 1790.28 148.93 1831.44 123.48C1872.6 98.03 1919.86 96.4 1919.86 96.4L1919.78 0.01V0Z" fill="url(#paint0_linear_8_261)"/>
<path d="M1919.69 97.3C1898.84 98.48 1879.12 103.39 1863.94 109.51C1830.37 123.05 1811.95 140.38 1760.51 139.83C1709.07 139.28 1687.41 120.34 1666.29 111.67C1645.17 103 1622.43 91.63 1571.52 99.22C1520.62 106.8 1520.62 131.71 1459.97 139.83C1399.32 147.95 1371.7 116 1339.21 107.88C1306.72 99.76 1278.02 90.55 1215.2 113.3C1152.38 136.05 1178.92 138.75 1122.6 139.29C1066.28 139.83 1039.75 119.8 1022.96 110.59C1006.17 101.38 973.68 93.26 927.11 102.47C880.54 111.68 872.96 130.09 834.51 137.67C796.06 145.25 751.12 134.42 726.21 119.26C701.3 104.1 652.56 88.94 608.7 100.31C564.84 111.68 539.93 137.67 494.44 139.3C448.95 140.93 428.92 133.88 403.47 119.81C378.02 105.74 350.94 98.69 314.66 98.15C278.38 97.61 244.26 119.81 224.23 129.56C204.2 139.31 163.58 140.39 163.58 140.39C163.58 140.39 120.86 143.12 65.55 111.14C65.55 111.14 21.3 95.87 0.580017 96.95V239.69L163.59 237.32H1920.25" fill="#C3C1FA"/>
<path d="M0 97.52C80 97.52 80 139.52 160 139.52C240 139.52 240 97.52 320 97.52C400 97.52 400 139.52 480 139.52C560 139.52 560 97.52 640 97.52C720 97.52 720 139.52 800 139.52C880 139.52 880 97.52 960 97.52C1040 97.52 1040 139.52 1120 139.52C1200 139.52 1200 97.52 1280 97.52C1360 97.52 1360 139.52 1440 139.52C1520 139.52 1520 97.52 1600 97.52C1680 97.52 1680 139.52 1760.01 139.52C1840.02 139.52 1840.01 97.52 1920.02 97.52" stroke="#444444" stroke-width="8.08" stroke-miterlimit="10"/>
<defs>
<linearGradient id="paint0_linear_8_261" x1="960.215" y1="0" x2="960.215" y2="140.98" gradientUnits="userSpaceOnUse">
<stop stop-color="#FFC896"/>
<stop offset="1" stop-color="#FFC897"/>
</linearGradient>
</defs>
</svg>
